<svg width="163" height="26" viewBox="0 0 163 26" fill="none" xmlns="http://www.w3.org/2000/svg">
<path d="M5.66692 19.7312L0.791016 6.44301H4.38097L7.7566 16.4895L11.1322 6.44301H14.7222L9.81948 19.7312H5.66692Z" fill="#F64920"/>
<path d="M18.9011 4.38013C18.276 4.38013 17.758 4.19259 17.3472 3.81752C16.9543 3.44245 16.7579 2.96915 16.7579 2.39762C16.7579 1.82608 16.9543 1.36171 17.3472 1.0045C17.758 0.629429 18.276 0.441895 18.9011 0.441895C19.5262 0.441895 20.0352 0.629429 20.4282 1.0045C20.839 1.36171 21.0444 1.82608 21.0444 2.39762C21.0444 2.96915 20.839 3.44245 20.4282 3.81752C20.0352 4.19259 19.5262 4.38013 18.9011 4.38013ZM17.1865 19.7312V6.44301H20.6157V19.7312H17.1865Z" fill="#F64920"/>
<path d="M30.4707 20.0527C29.2205 20.0527 28.1042 19.7491 27.1219 19.1418C26.1395 18.5345 25.3626 17.704 24.7911 16.6503C24.2195 15.5965 23.9338 14.3998 23.9338 13.0603C23.9338 11.7208 24.2195 10.5331 24.7911 9.49715C25.3626 8.44338 26.1395 7.6218 27.1219 7.03241C28.1042 6.42515 29.2205 6.12152 30.4707 6.12152C31.4709 6.12152 32.3461 6.30906 33.0962 6.68413C33.8463 7.0592 34.4536 7.58608 34.918 8.26478V0.441895H38.3472V19.7312H35.293L34.918 17.8291C34.4893 18.4185 33.9178 18.9364 33.2034 19.3829C32.5068 19.8294 31.5959 20.0527 30.4707 20.0527ZM31.1941 17.0521C32.3014 17.0521 33.2034 16.686 33.8999 15.9537C34.6143 15.2036 34.9715 14.248 34.9715 13.0871C34.9715 11.9262 34.6143 10.9796 33.8999 10.2473C33.2034 9.49715 32.3014 9.12208 31.1941 9.12208C30.1046 9.12208 29.2026 9.48822 28.4882 10.2205C27.7738 10.9528 27.4166 11.8994 27.4166 13.0603C27.4166 14.2212 27.7738 15.1768 28.4882 15.9269C29.2026 16.6771 30.1046 17.0521 31.1941 17.0521Z" fill="#F64920"/>
<path d="M48.4632 20.0527C47.1236 20.0527 45.9359 19.7669 44.9 19.1954C43.8641 18.6238 43.0515 17.8201 42.4621 16.7842C41.8727 15.7483 41.578 14.5517 41.578 13.1943C41.578 11.819 41.8637 10.5956 42.4353 9.52394C43.0247 8.45231 43.8284 7.6218 44.8464 7.03241C45.8823 6.42515 47.0968 6.12152 48.49 6.12152C49.7938 6.12152 50.9458 6.40729 51.946 6.97883C52.9461 7.55036 53.7231 8.33622 54.2768 9.33641C54.8483 10.3187 55.1341 11.4172 55.1341 12.6317C55.1341 12.8281 55.1251 13.0335 55.1073 13.2478C55.1073 13.4622 55.0983 13.6854 55.0805 13.9176H44.9804C45.0518 14.9535 45.409 15.7662 46.052 16.3556C46.7128 16.945 47.5076 17.2397 48.4364 17.2397C49.1329 17.2397 49.7134 17.0878 50.1778 16.7842C50.66 16.4627 51.0172 16.0519 51.2494 15.5518H54.7322C54.4821 16.3913 54.0624 17.1593 53.473 17.8558C52.9015 18.5345 52.1871 19.0704 51.3298 19.4633C50.4903 19.8562 49.5348 20.0527 48.4632 20.0527ZM48.49 8.90775C47.6505 8.90775 46.9093 9.14887 46.2663 9.6311C45.6234 10.0955 45.2126 10.8099 45.034 11.7744H51.6513C51.5977 10.8992 51.2762 10.2026 50.6868 9.68468C50.0974 9.16673 49.3651 8.90775 48.49 8.90775Z" fill="#F64920"/>
<path d="M64.5619 20.0527C63.2759 20.0527 62.115 19.758 61.0791 19.1686C60.061 18.5792 59.2484 17.7665 58.6411 16.7306C58.0517 15.6769 57.757 14.4624 57.757 13.0871C57.757 11.7118 58.0607 10.5063 58.6679 9.47036C59.2752 8.41659 60.0878 7.59501 61.1059 7.00562C62.1418 6.41622 63.3027 6.12152 64.5887 6.12152C65.8568 6.12152 66.9998 6.41622 68.0179 7.00562C69.0538 7.59501 69.8664 8.41659 70.4558 9.47036C71.0631 10.5063 71.3667 11.7118 71.3667 13.0871C71.3667 14.4624 71.0631 15.6769 70.4558 16.7306C69.8664 17.7665 69.0538 18.5792 68.0179 19.1686C66.982 19.758 65.83 20.0527 64.5619 20.0527ZM64.5619 17.0789C65.4549 17.0789 66.2318 16.7485 66.8927 16.0877C67.5535 15.409 67.8839 14.4088 67.8839 13.0871C67.8839 11.7654 67.5535 10.7742 66.8927 10.1133C66.2318 9.43464 65.4638 9.09529 64.5887 9.09529C63.6778 9.09529 62.8919 9.43464 62.2311 10.1133C61.5881 10.7742 61.2666 11.7654 61.2666 13.0871C61.2666 14.4088 61.5881 15.409 62.2311 16.0877C62.8919 16.7485 63.6688 17.0789 64.5619 17.0789Z" fill="#F64920"/>
<path d="M82.4767 20.0527C81.4765 20.0527 80.6013 19.8652 79.8512 19.4901C79.1011 19.115 78.4938 18.5881 78.0294 17.9094L77.6544 19.7312H74.6002V0.441895H78.0294V8.34515C78.4581 7.75575 79.0207 7.2378 79.7172 6.79129C80.4317 6.34478 81.3515 6.12152 82.4767 6.12152C83.7269 6.12152 84.8432 6.42515 85.8255 7.03241C86.8078 7.63966 87.5848 8.47017 88.1563 9.52394C88.7279 10.5777 89.0136 11.7744 89.0136 13.1139C89.0136 14.4534 88.7279 15.6501 88.1563 16.7038C87.5848 17.7398 86.8078 18.5613 85.8255 19.1686C84.8432 19.758 83.7269 20.0527 82.4767 20.0527ZM81.7533 17.0521C82.8428 17.0521 83.7448 16.686 84.4592 15.9537C85.1736 15.2214 85.5308 14.2748 85.5308 13.1139C85.5308 11.953 85.1736 10.9974 84.4592 10.2473C83.7448 9.49715 82.8428 9.12208 81.7533 9.12208C80.646 9.12208 79.7351 9.49715 79.0207 10.2473C78.3241 10.9796 77.9758 11.9262 77.9758 13.0871C77.9758 14.248 78.3241 15.2036 79.0207 15.9537C79.7351 16.686 80.646 17.0521 81.7533 17.0521Z" fill="#F64920"/>
<path d="M98.701 20.0527C97.3614 20.0527 96.1737 19.7669 95.1378 19.1954C94.1019 18.6238 93.2892 17.8201 92.6998 16.7842C92.1105 15.7483 91.8158 14.5517 91.8158 13.1943C91.8158 11.819 92.1015 10.5956 92.673 9.52394C93.2624 8.45231 94.0662 7.6218 95.0842 7.03241C96.1201 6.42515 97.3346 6.12152 98.7277 6.12152C100.032 6.12152 101.184 6.40729 102.184 6.97883C103.184 7.55036 103.961 8.33622 104.515 9.33641C105.086 10.3187 105.372 11.4172 105.372 12.6317C105.372 12.8281 105.363 13.0335 105.345 13.2478C105.345 13.4622 105.336 13.6854 105.318 13.9176H95.2182C95.2896 14.9535 95.6468 15.7662 96.2898 16.3556C96.9506 16.945 97.7454 17.2397 98.6742 17.2397C99.3707 17.2397 99.9512 17.0878 100.416 16.7842C100.898 16.4627 101.255 16.0519 101.487 15.5518H104.97C104.72 16.3913 104.3 17.1593 103.711 17.8558C103.139 18.5345 102.425 19.0704 101.568 19.4633C100.728 19.8562 99.7726 20.0527 98.701 20.0527ZM98.7277 8.90775C97.8883 8.90775 97.1471 9.14887 96.5041 9.6311C95.8611 10.0955 95.4504 10.8099 95.2718 11.7744H101.889C101.835 10.8992 101.514 10.2026 100.925 9.68468C100.335 9.16673 99.6029 8.90775 98.7277 8.90775Z" fill="#F64920"/>
<path d="M108.423 19.7312V0.441895H111.853V19.7312H108.423Z" fill="#F64920"/>
<path d="M120.105 20.0527C118.962 20.0527 118.025 19.8741 117.292 19.5169C116.56 19.1418 116.015 18.6506 115.658 18.0434C115.301 17.4361 115.122 16.7664 115.122 16.0341C115.122 14.8017 115.604 13.8015 116.569 13.0335C117.533 12.2655 118.98 11.8815 120.909 11.8815H124.285V11.56C124.285 10.6492 124.026 9.97938 123.508 9.55073C122.99 9.12208 122.347 8.90775 121.579 8.90775C120.882 8.90775 120.275 9.07743 119.757 9.41678C119.239 9.73827 118.918 10.2205 118.793 10.8635H115.444C115.533 9.89901 115.854 9.05957 116.408 8.34515C116.98 7.63073 117.712 7.08599 118.605 6.71092C119.498 6.31799 120.498 6.12152 121.606 6.12152C123.499 6.12152 124.99 6.59482 126.08 7.54143C127.169 8.48803 127.714 9.82757 127.714 11.56V19.7312H124.794L124.472 17.5879C124.079 18.3024 123.526 18.8918 122.811 19.3561C122.115 19.8205 121.213 20.0527 120.105 20.0527ZM120.882 17.3736C121.865 17.3736 122.624 17.0521 123.159 16.4092C123.713 15.7662 124.061 14.9714 124.204 14.0248H121.284C120.373 14.0248 119.721 14.1945 119.328 14.5338C118.935 14.8553 118.739 15.2572 118.739 15.7394C118.739 16.2573 118.935 16.6592 119.328 16.945C119.721 17.2307 120.239 17.3736 120.882 17.3736Z" fill="#F64920"/>
<path d="M133.056 4.38013C132.431 4.38013 131.913 4.19259 131.502 3.81752C131.109 3.44245 130.913 2.96915 130.913 2.39762C130.913 1.82608 131.109 1.36171 131.502 1.0045C131.913 0.629429 132.431 0.441895 133.056 0.441895C133.681 0.441895 134.19 0.629429 134.583 1.0045C134.994 1.36171 135.199 1.82608 135.199 2.39762C135.199 2.96915 134.994 3.44245 134.583 3.81752C134.19 4.19259 133.681 4.38013 133.056 4.38013ZM128.635 25.6252V22.705H129.68C130.27 22.705 130.689 22.5889 130.939 22.3567C131.189 22.1245 131.314 21.7316 131.314 21.1779V6.44301H134.744V21.1779C134.744 22.7853 134.333 23.9284 133.511 24.6071C132.708 25.2858 131.609 25.6252 130.216 25.6252H128.635Z" fill="#F64920"/>
<path d="M143.071 20.0527C141.928 20.0527 140.99 19.8741 140.258 19.5169C139.526 19.1418 138.981 18.6506 138.624 18.0434C138.266 17.4361 138.088 16.7664 138.088 16.0341C138.088 14.8017 138.57 13.8015 139.535 13.0335C140.499 12.2655 141.946 11.8815 143.875 11.8815H147.25V11.56C147.25 10.6492 146.991 9.97938 146.473 9.55073C145.955 9.12208 145.312 8.90775 144.544 8.90775C143.848 8.90775 143.241 9.07743 142.723 9.41678C142.205 9.73827 141.883 10.2205 141.758 10.8635H138.409C138.499 9.89901 138.82 9.05957 139.374 8.34515C139.945 7.63073 140.678 7.08599 141.571 6.71092C142.464 6.31799 143.464 6.12152 144.571 6.12152C146.464 6.12152 147.956 6.59482 149.045 7.54143C150.135 8.48803 150.68 9.82757 150.68 11.56V19.7312H147.759L147.438 17.5879C147.045 18.3024 146.491 18.8918 145.777 19.3561C145.08 19.8205 144.178 20.0527 143.071 20.0527ZM143.848 17.3736C144.83 17.3736 145.589 17.0521 146.125 16.4092C146.679 15.7662 147.027 14.9714 147.17 14.0248H144.25C143.339 14.0248 142.687 14.1945 142.294 14.5338C141.901 14.8553 141.705 15.2572 141.705 15.7394C141.705 16.2573 141.901 16.6592 142.294 16.945C142.687 17.2307 143.205 17.3736 143.848 17.3736Z" fill="#F64920"/>
<path d="M154.119 19.7312V6.44301H157.174L157.495 8.93455C157.977 8.07724 158.629 7.39855 159.451 6.89845C160.29 6.3805 161.273 6.12152 162.398 6.12152V9.73827H161.433C160.683 9.73827 160.013 9.85436 159.424 10.0865C158.835 10.3187 158.37 10.7206 158.031 11.2921C157.709 11.8637 157.549 12.6585 157.549 13.6765V19.7312H154.119Z" fill="#F64920"/>
<path fill-rule="evenodd" clip-rule="evenodd" d="M17.3472 3.81752C17.758 4.19259 18.276 4.38013 18.9011 4.38013C19.5262 4.38013 20.0352 4.19259 20.4282 3.81752C20.839 3.44245 21.0444 2.96915 21.0444 2.39762C21.0444 1.82608 20.839 1.36171 20.4282 1.0045C20.0352 0.629429 19.5262 0.441895 18.9011 0.441895C18.276 0.441895 17.758 0.629429 17.3472 1.0045C16.9543 1.36171 16.7579 1.82608 16.7579 2.39762C16.7579 2.96915 16.9543 3.44245 17.3472 3.81752ZM17.1865 6.44301V19.7312H20.6157V6.44301H17.1865ZM0.791016 6.44301L5.66692 19.7312H9.81948L14.7222 6.44301H11.1322L7.7566 16.4895L4.38097 6.44301H0.791016ZM30.4707 20.0527C29.2205 20.0527 28.1042 19.7491 27.1219 19.1418C26.1395 18.5345 25.3626 17.704 24.7911 16.6503C24.2195 15.5965 23.9338 14.3998 23.9338 13.0603C23.9338 11.7208 24.2195 10.5331 24.7911 9.49715C25.3626 8.44338 26.1395 7.6218 27.1219 7.03241C28.1042 6.42515 29.2205 6.12152 30.4707 6.12152C31.4709 6.12152 32.3461 6.30906 33.0962 6.68413C33.8463 7.0592 34.4536 7.58608 34.918 8.26478V0.441895H38.3472V19.7312H35.293L34.918 17.8291C34.4893 18.4185 33.9178 18.9364 33.2034 19.3829C32.5068 19.8294 31.5959 20.0527 30.4707 20.0527ZM31.1941 17.0521C32.3014 17.0521 33.2034 16.686 33.8999 15.9537C34.6143 15.2036 34.9715 14.248 34.9715 13.0871C34.9715 11.9262 34.6143 10.9796 33.8999 10.2473C33.2034 9.49715 32.3014 9.12208 31.1941 9.12208C30.1046 9.12208 29.2026 9.48822 28.4882 10.2205C27.7738 10.9528 27.4166 11.8994 27.4166 13.0603C27.4166 14.2212 27.7738 15.1768 28.4882 15.9269C29.2026 16.6771 30.1046 17.0521 31.1941 17.0521ZM44.9 19.1954C45.9359 19.7669 47.1236 20.0527 48.4632 20.0527C49.5348 20.0527 50.4903 19.8562 51.3298 19.4633C52.1871 19.0704 52.9015 18.5345 53.473 17.8558C54.0624 17.1593 54.4821 16.3913 54.7322 15.5518H51.2494C51.0172 16.0519 50.66 16.4627 50.1778 16.7842C49.7134 17.0878 49.1329 17.2397 48.4364 17.2397C47.5076 17.2397 46.7128 16.945 46.052 16.3556C45.409 15.7662 45.0518 14.9535 44.9804 13.9176H55.0805C55.0983 13.6854 55.1073 13.4622 55.1073 13.2478C55.1251 13.0335 55.1341 12.8281 55.1341 12.6317C55.1341 11.4172 54.8483 10.3187 54.2768 9.33641C53.7231 8.33622 52.9461 7.55036 51.946 6.97883C50.9458 6.40729 49.7938 6.12152 48.49 6.12152C47.0968 6.12152 45.8823 6.42515 44.8464 7.03241C43.8284 7.6218 43.0247 8.45231 42.4353 9.52394C41.8637 10.5956 41.578 11.819 41.578 13.1943C41.578 14.5517 41.8727 15.7483 42.4621 16.7842C43.0515 17.8201 43.8641 18.6238 44.9 19.1954ZM46.2663 9.6311C46.9093 9.14887 47.6505 8.90775 48.49 8.90775C49.3651 8.90775 50.0974 9.16673 50.6868 9.68468C51.2762 10.2026 51.5977 10.8992 51.6513 11.7744H45.034C45.2126 10.8099 45.6234 10.0955 46.2663 9.6311ZM64.5619 20.0527C63.2759 20.0527 62.115 19.758 61.0791 19.1686C60.061 18.5792 59.2484 17.7665 58.6411 16.7306C58.0517 15.6769 57.757 14.4624 57.757 13.0871C57.757 11.7118 58.0607 10.5063 58.6679 9.47036C59.2752 8.41659 60.0878 7.59501 61.1059 7.00562C62.1418 6.41622 63.3027 6.12152 64.5887 6.12152C65.8568 6.12152 66.9998 6.41622 68.0179 7.00562C69.0538 7.59501 69.8664 8.41659 70.4558 9.47036C71.0631 10.5063 71.3667 11.7118 71.3667 13.0871C71.3667 14.4624 71.0631 15.6769 70.4558 16.7306C69.8664 17.7665 69.0538 18.5792 68.0179 19.1686C66.982 19.758 65.83 20.0527 64.5619 20.0527ZM64.5619 17.0789C65.4549 17.0789 66.2318 16.7485 66.8927 16.0877C67.5535 15.409 67.8839 14.4088 67.8839 13.0871C67.8839 11.7654 67.5535 10.7742 66.8927 10.1133C66.2318 9.43464 65.4638 9.09529 64.5887 9.09529C63.6778 9.09529 62.8919 9.43464 62.2311 10.1133C61.5881 10.7742 61.2666 11.7654 61.2666 13.0871C61.2666 14.4088 61.5881 15.409 62.2311 16.0877C62.8919 16.7485 63.6688 17.0789 64.5619 17.0789ZM89.0136 13.0896C86.2853 15.0517 83.8428 17.3862 81.7604 20.0186C81.053 19.9489 80.4166 19.7728 79.8512 19.4901C79.1011 19.115 78.4938 18.5881 78.0294 17.9094L77.6544 19.7312H74.6002V0.441895H78.0294V8.34515C78.4581 7.75575 79.0207 7.2378 79.7172 6.79129C80.4317 6.34478 81.3515 6.12152 82.4767 6.12152C83.7269 6.12152 84.8432 6.42515 85.8255 7.03241C86.8078 7.63966 87.5848 8.47017 88.1563 9.52394C88.7244 10.5713 89.0101 11.7599 89.0136 13.0896ZM102.44 7.13313C98.7367 7.92567 95.2445 9.28782 92.0596 11.1234C92.2019 10.5572 92.4063 10.024 92.673 9.52394C93.2624 8.45231 94.0662 7.6218 95.0842 7.03241C96.1201 6.42515 97.3346 6.12152 98.7277 6.12152C100.032 6.12152 101.184 6.40729 102.184 6.97883C102.271 7.02863 102.356 7.08007 102.44 7.13313ZM111.853 6.38222C111.242 6.35145 110.628 6.33588 110.01 6.33588C109.478 6.33588 108.949 6.3474 108.423 6.37021V0.441895H111.853V6.38222ZM127.692 10.97C124.622 9.23612 121.273 7.93969 117.729 7.16539C118.002 6.99325 118.293 6.84176 118.605 6.71092C119.498 6.31799 120.498 6.12152 121.606 6.12152C123.499 6.12152 124.99 6.59482 126.08 7.54143C127.042 8.37765 127.579 9.52051 127.692 10.97ZM134.744 16.1776C133.662 15.1544 132.517 14.1975 131.314 13.3136V6.44301H134.744V16.1776ZM84.4592 15.9537C83.7448 16.686 82.8428 17.0521 81.7533 17.0521C80.646 17.0521 79.7351 16.686 79.0207 15.9537C78.3241 15.2036 77.9758 14.248 77.9758 13.0871C77.9758 11.9262 78.3241 10.9796 79.0207 10.2473C79.7351 9.49715 80.646 9.12208 81.7533 9.12208C82.8428 9.12208 83.7448 9.49715 84.4592 10.2473C85.1736 10.9974 85.5308 11.953 85.5308 13.1139C85.5308 14.2748 85.1736 15.2214 84.4592 15.9537ZM131.502 3.81752C131.913 4.19259 132.431 4.38013 133.056 4.38013C133.681 4.38013 134.19 4.19259 134.583 3.81752C134.994 3.44245 135.199 2.96915 135.199 2.39762C135.199 1.82608 134.994 1.36171 134.583 1.0045C134.19 0.629429 133.681 0.441895 133.056 0.441895C132.431 0.441895 131.913 0.629429 131.502 1.0045C131.109 1.36171 130.913 1.82608 130.913 2.39762C130.913 2.96915 131.109 3.44245 131.502 3.81752ZM143.071 20.0527C141.928 20.0527 140.99 19.8741 140.258 19.5169C139.526 19.1418 138.981 18.6506 138.624 18.0434C138.266 17.4361 138.088 16.7664 138.088 16.0341C138.088 14.8017 138.57 13.8015 139.535 13.0335C140.499 12.2655 141.946 11.8815 143.875 11.8815H147.25V11.56C147.25 10.6492 146.991 9.97938 146.473 9.55073C145.955 9.12208 145.312 8.90775 144.544 8.90775C143.848 8.90775 143.241 9.07743 142.723 9.41678C142.205 9.73827 141.883 10.2205 141.758 10.8635H138.409C138.499 9.89901 138.82 9.05957 139.374 8.34515C139.945 7.63073 140.678 7.08599 141.571 6.71092C142.464 6.31799 143.464 6.12152 144.571 6.12152C146.464 6.12152 147.956 6.59482 149.045 7.54143C150.135 8.48803 150.68 9.82757 150.68 11.56V19.7312H147.759L147.438 17.5879C147.045 18.3024 146.491 18.8918 145.777 19.3561C145.08 19.8205 144.178 20.0527 143.071 20.0527ZM143.848 17.3736C144.83 17.3736 145.589 17.0521 146.125 16.4092C146.679 15.7662 147.027 14.9714 147.17 14.0248H144.25C143.339 14.0248 142.687 14.1945 142.294 14.5338C141.901 14.8553 141.705 15.2572 141.705 15.7394C141.705 16.2573 141.901 16.6592 142.294 16.945C142.687 17.2307 143.205 17.3736 143.848 17.3736ZM157.174 6.44301H154.119V19.7312H157.549V13.6765C157.549 12.6585 157.709 11.8637 158.031 11.2921C158.37 10.7206 158.835 10.3187 159.424 10.0865C160.013 9.85436 160.683 9.73827 161.433 9.73827H162.398V6.12152C161.273 6.12152 160.29 6.3805 159.451 6.89845C158.629 7.39855 157.977 8.07724 157.495 8.93455L157.174 6.44301Z" fill="#FFBD3A"/>
</svg>
